<svg xmlns="http://www.w3.org/2000/svg" version="1.2" viewBox="0 0 295 295" preserveAspectRatio="xMidYMid meet" baseProfile="tiny-ps" xml:space="preserve"><title>logobimi</title>
<path fill="#6b80b3" d="   M 240.43 155.28   Q 239.52 156.26 236.23 159.86   A 1.01 1.01 0.0 0 1 234.79 159.91   L 220.70 146.64   A 0.81 0.81 0.0 0 0 219.63 146.60   C 194.17 167.31 155.81 159.44 139.76 131.46   C 128.11 111.16 130.86 85.40 147.10 68.03   C 163.34 50.66 188.86 46.18 209.89 56.44   C 238.89 70.57 249.32 108.32 230.37 135.11   A 0.81 0.81 0.0 0 0 230.48 136.18   L 244.67 149.34   A 1.01 1.01 0.0 0 1 244.71 150.79   Q 241.35 154.31 240.43 155.28   Z   M 226.75 104.63   A 40.44 40.44 0.0 0 0 186.31 64.19   A 40.44 40.44 0.0 0 0 145.87 104.63   A 40.44 40.44 0.0 0 0 186.31 145.07   A 40.44 40.44 0.0 0 0 226.75 104.63   Z"/>
<path fill="#6b80b3" d="   M 119.17 186.72   A 0.24 0.24 0.0 0 1 118.70 186.80   L 99.06 131.10   A 0.43 0.43 0.0 0 0 98.23 131.14   L 91.91 157.94   A 0.28 0.28 0.0 0 1 91.36 157.88   L 91.36 82.10   A 0.63 0.62 -90.0 0 1 91.98 81.47   L 118.57 81.47   A 0.60 0.60 0.0 0 1 119.17 82.07   L 119.17 186.72   Z"/>
<path fill="#6b80b3" d="   M 174.71 105.60   A 0.15 0.15 0.0 0 1 174.97 105.64   L 186.21 139.84   A 0.76 0.76 0.0 0 1 185.49 140.84   L 180.44 140.84   A 1.25 1.25 0.0 0 1 179.25 139.98   L 176.12 130.47   A 0.39 0.38 42.5 0 0 175.38 130.50   L 173.35 139.10   A 1.23 1.22 -71.4 0 1 171.66 139.94   L 167.56 138.09   A 1.41 1.41 0.0 0 1 166.77 136.45   Q 169.34 126.61 174.16 106.69   Q 174.30 106.10 174.71 105.60   Z"/>
<rect fill="#6b80b3" x="54.50" y="117.08" width="27.72" height="70.98" rx="0.86"/>
<rect fill="#6b80b3" x="17.51" y="140.21" width="27.82" height="47.22" rx="0.90"/>
<path fill="#6b80b3" d="   M 100.08 143.51   Q 100.52 144.13 100.55 144.23   Q 110.91 175.79 125.93 221.66   A 0.21 0.21 0.0 0 0 126.32 221.68   L 135.92 200.31   A 1.75 1.75 0.0 0 1 137.52 199.27   L 151.36 199.27   A 1.47 1.47 0.0 0 0 152.79 198.14   L 162.63 156.43   A 0.72 0.72 0.0 0 1 163.62 155.94   L 170.23 158.91   A 0.53 0.52 18.9 0 1 170.53 159.51   L 159.41 206.61   A 0.78 0.78 0.0 0 1 158.65 207.21   L 142.18 207.21   A 1.70 1.69 -77.9 0 0 140.63 208.22   L 130.01 231.87   A 1.31 1.30 -77.5 0 1 128.83 232.63   L 121.79 232.63   A 0.99 0.98 -8.9 0 1 120.85 231.95   L 102.20 175.23   A 0.38 0.38 0.0 0 0 101.47 175.26   L 94.75 203.77   A 1.18 1.18 0.0 0 1 93.60 204.67   L 46.88 204.67   A 0.52 0.51 0.0 0 1 46.36 204.16   L 46.36 197.07   A 0.40 0.39 0.0 0 1 46.76 196.68   L 86.00 196.68   A 1.59 1.59 0.0 0 0 87.55 195.46   L 99.79 143.57   A 0.16 0.16 0.0 0 1 100.08 143.51   Z"/>
<rect fill="#6b80b3" x="-22.82" y="-11.33" transform="translate(258.45,172.15) rotate(43.1)" width="45.64" height="22.66" rx="3.72"/>
<path fill="#6b80b3" d="   M 187.94 161.02   L 199.46 196.03   A 0.90 0.90 0.0 0 0 200.31 196.65   L 217.67 196.65   A 0.90 0.90 0.0 0 1 218.57 197.55   L 218.57 203.78   A 0.90 0.90 0.0 0 1 217.67 204.68   L 194.46 204.68   A 0.90 0.90 0.0 0 1 193.61 204.06   L 179.64 161.58   A 0.90 0.90 0.0 0 1 180.49 160.40   L 187.09 160.40   A 0.90 0.90 0.0 0 1 187.94 161.02   Z"/>
</svg>