<svg xmlns="http://www.w3.org/2000/svg" version="1.2" viewBox="0 0 295 295" preserveAspectRatio="xMidYMid meet" baseProfile="tiny-ps" xml:space="preserve"><title>bimilogo</title>
<path d="M0 0 C10.48510358 9.66313561 15.78721823 22.5613641 17.19921875 36.6171875 C17.56589369 49.38969775 13.48100353 59.90783171 7.85546875 71.1953125 C10.0404832 73.38660315 12.25684114 75.54327049 14.48046875 77.6953125 C15.09792969 78.31535156 15.71539062 78.93539062 16.3515625 79.57421875 C20.09673215 83.29735683 20.09673215 83.29735683 25.10546875 84.41015625 C26.01296875 84.33925781 26.92046875 84.26835937 27.85546875 84.1953125 C29.69140625 85.48046875 29.69140625 85.48046875 31.23046875 87.2578125 C33.64261902 89.89792423 36.0660111 92.31676628 38.79296875 94.6328125 C42.33993759 97.68676637 45.62444139 100.93098642 48.890625 104.28125 C51.30391191 106.63216568 53.89756328 108.67507431 56.60546875 110.67578125 C57.85546875 112.1953125 57.85546875 112.1953125 58.3828125 114.48046875 C57.61375165 118.43970795 55.16120991 120.67147757 52.41796875 123.4453125 C51.64356445 124.25742187 51.64356445 124.25742187 50.85351562 125.0859375 C45.984872 130.17732953 45.984872 130.17732953 43.12890625 130.57421875 C38.71364157 130.06314396 37.45401707 128.37232335 34.48046875 125.1328125 C31.30178534 121.75532633 28.14369835 118.45349603 24.60546875 115.4453125 C21.38079142 112.68979929 18.36043837 109.79732257 15.40234375 106.7578125 C14.10847405 105.45087341 12.73951204 104.21885038 11.35546875 103.0078125 C10.86046875 102.4096875 10.36546875 101.8115625 9.85546875 101.1953125 C10.05785156 100.57398438 10.26023438 99.95265625 10.46875 99.3125 C10.59636719 98.61382812 10.72398437 97.91515625 10.85546875 97.1953125 C9.51810984 95.21335762 9.51810984 95.21335762 7.54296875 93.5078125 C6.90746094 92.90582031 6.27195313 92.30382812 5.6171875 91.68359375 C3.91457046 90.12670571 3.91457046 90.12670571 1.85546875 89.1953125 C1.85546875 88.5353125 1.85546875 87.8753125 1.85546875 87.1953125 C-0.47667273 85.98903242 -2.64095264 85.0298387 -5.14453125 84.1953125 C-7.27292328 85.27639916 -7.27292328 85.27639916 -9.51953125 86.8828125 C-17.45442947 91.87842924 -25.93675678 93.93360976 -35.14453125 95.1953125 C-34.81130859 96.2147998 -34.47808594 97.23428711 -34.13476562 98.28466797 C-32.90182856 102.0594242 -31.67274022 105.83542415 -30.44482422 109.61181641 C-29.91234939 111.24757649 -29.3788247 112.8829952 -28.84423828 114.51806641 C-28.07700204 116.86532534 -27.31352236 119.21377713 -26.55078125 121.5625 C-26.31016968 122.29588593 -26.06955811 123.02927185 -25.82165527 123.78488159 C-24.14453125 128.96756909 -24.14453125 128.96756909 -24.14453125 131.1953125 C-17.87453125 131.1953125 -11.60453125 131.1953125 -5.14453125 131.1953125 C-5.14453125 134.4953125 -5.14453125 137.7953125 -5.14453125 141.1953125 C-13.72453125 141.1953125 -22.30453125 141.1953125 -31.14453125 141.1953125 C-34.35065885 133.17999349 -37.19359614 125.26815208 -39.83203125 117.0703125 C-40.23486328 115.84699219 -40.63769531 114.62367188 -41.05273438 113.36328125 C-43.01548147 107.28106664 -44.6748874 101.57928489 -45.14453125 95.1953125 C-49.10453125 94.2053125 -49.10453125 94.2053125 -53.14453125 93.1953125 C-53.19020737 93.80434418 -53.23588348 94.41337585 -53.28294373 95.04086304 C-53.81076093 101.18492473 -54.8830131 106.95943881 -56.4296875 112.921875 C-56.650233 113.79556732 -56.8707785 114.66925964 -57.0980072 115.56942749 C-57.79432169 118.32147401 -58.50048208 121.07087792 -59.20703125 123.8203125 C-59.68490223 125.70165605 -60.16212166 127.58316522 -60.63867188 129.46484375 C-61.79858211 134.04396763 -62.97181455 138.61937618 -64.14453125 143.1953125 C-70.41453125 143.1953125 -76.68453125 143.1953125 -83.14453125 143.1953125 C-84.13453125 146.1653125 -85.12453125 149.1353125 -86.14453125 152.1953125 C-87.32071928 155.05103539 -88.51418454 157.87610167 -89.76953125 160.6953125 C-90.23746094 161.76652344 -90.23746094 161.76652344 -90.71484375 162.859375 C-93.0082111 168.05899235 -93.0082111 168.05899235 -94.14453125 169.1953125 C-95.83062091 169.26736761 -97.51953784 169.27917318 -99.20703125 169.2578125 C-100.12613281 169.24878906 -101.04523438 169.23976562 -101.9921875 169.23046875 C-102.70246094 169.21886719 -103.41273437 169.20726562 -104.14453125 169.1953125 C-113.14453125 142.1953125 -113.14453125 142.1953125 -122.14453125 115.1953125 C-124.87247084 125.88228466 -124.87247084 125.88228466 -127.33203125 136.6328125 C-128.14453125 140.1953125 -128.14453125 140.1953125 -129.14453125 141.1953125 C-130.71000173 141.28857966 -132.27965897 141.31276832 -133.84790039 141.30883789 C-134.84886246 141.30876236 -135.84982452 141.30868683 -136.88111877 141.30860901 C-137.96964645 141.30344772 -139.05817413 141.29828644 -140.1796875 141.29296875 C-141.2880748 141.2915538 -142.3964621 141.29013885 -143.53843689 141.28868103 C-147.09466194 141.28306283 -150.65082508 141.27050725 -154.20703125 141.2578125 C-156.61132722 141.25279984 -159.01562417 141.24823653 -161.41992188 141.24414062 C-167.32814902 141.23308749 -173.23632962 141.21581066 -179.14453125 141.1953125 C-179.14453125 137.8953125 -179.14453125 134.5953125 -179.14453125 131.1953125 C-165.61453125 131.1953125 -152.08453125 131.1953125 -138.14453125 131.1953125 C-136.82453125 124.9253125 -135.50453125 118.6553125 -134.14453125 112.1953125 C-132.95965481 107.08334558 -131.76038791 101.9807568 -130.51953125 96.8828125 C-130.22046875 95.63564453 -129.92140625 94.38847656 -129.61328125 93.10351562 C-128.30876953 87.71518957 -126.95550553 82.43928545 -125.14453125 77.1953125 C-124.48453125 77.1953125 -123.82453125 77.1953125 -123.14453125 77.1953125 C-114.66557343 102.48189082 -106.35268164 127.81957978 -98.14453125 153.1953125 C-97.91789795 152.6605127 -97.69126465 152.12571289 -97.45776367 151.57470703 C-96.42512689 149.1524986 -95.37878122 146.73645342 -94.33203125 144.3203125 C-93.97560547 143.47855469 -93.61917969 142.63679687 -93.25195312 141.76953125 C-92.90068359 140.96386719 -92.54941406 140.15820312 -92.1875 139.328125 C-91.7083313 138.21268311 -91.7083313 138.21268311 -91.21948242 137.07470703 C-90.14453125 135.1953125 -90.14453125 135.1953125 -87.14453125 133.1953125 C-83.7890625 133 -83.7890625 133 -79.95703125 133.0703125 C-78.68472656 133.08835938 -77.41242188 133.10640625 -76.1015625 133.125 C-75.12574219 133.14820313 -74.14992188 133.17140625 -73.14453125 133.1953125 C-72.84683838 131.96901123 -72.54914551 130.74270996 -72.24243164 129.47924805 C-71.13857161 124.93352542 -70.03304065 120.38821055 -68.92700195 115.84301758 C-68.44835484 113.87502971 -67.97016216 111.90693127 -67.49243164 109.9387207 C-66.80604316 107.1111993 -66.11802637 104.28407839 -65.4296875 101.45703125 C-65.10932274 100.13501961 -65.10932274 100.13501961 -64.78248596 98.78630066 C-64.58235397 97.96567642 -64.38222198 97.14505219 -64.17602539 96.29956055 C-63.91288292 95.21701241 -63.91288292 95.21701241 -63.64442444 94.1125946 C-63.21207836 92.45438156 -62.68643471 90.82102289 -62.14453125 89.1953125 C-62.75039062 88.87820312 -63.35625 88.56109375 -63.98046875 88.234375 C-77.65151994 80.6206511 -86.80138601 69.40777902 -91.390625 54.46875 C-95.09406724 38.38851891 -92.35181192 24.16539865 -84.33203125 10.0078125 C-77.01895676 -1.63489316 -64.58845536 -10.23559387 -51.22265625 -13.5234375 C-31.84731202 -17.11496472 -14.96939075 -12.59719221 0 0 Z M-70.76953125 17.015625 C-76.3490799 24.15611881 -78.34932199 33.25679888 -78.14453125 42.1953125 C-76.29971691 54.23996811 -71.52290543 64.0971413 -62.05078125 71.92578125 C-60.24881128 73.38008135 -60.24881128 73.38008135 -58.14453125 73.1953125 C-57.14336596 68.97877859 -56.14657134 64.76124271 -55.15380859 60.54272461 C-54.81548998 59.10787092 -54.47598004 57.67329757 -54.13525391 56.23901367 C-53.64562291 54.17699625 -53.16028935 52.11400757 -52.67578125 50.05078125 C-52.38251953 48.80965576 -52.08925781 47.56853027 -51.78710938 46.28979492 C-51.04287342 43.23250503 -51.04287342 43.23250503 -51.14453125 40.1953125 C-50.48453125 40.1953125 -49.82453125 40.1953125 -49.14453125 40.1953125 C-45.18453125 52.4053125 -41.22453125 64.6153125 -37.14453125 77.1953125 C-39.78453125 76.8653125 -42.42453125 76.5353125 -45.14453125 76.1953125 C-46.13453125 73.5553125 -47.12453125 70.9153125 -48.14453125 68.1953125 C-48.47453125 68.1953125 -48.80453125 68.1953125 -49.14453125 68.1953125 C-49.26828125 69.4946875 -49.39203125 70.7940625 -49.51953125 72.1328125 C-49.73046875 74.34765625 -49.73046875 74.34765625 -50.14453125 76.1953125 C-51.13453125 76.6903125 -51.13453125 76.6903125 -52.14453125 77.1953125 C-42.02717099 80.43805617 -31.46413148 80.64517275 -21.5703125 76.453125 C-12.05177175 71.51758535 -3.8027784 63.4201133 -0.14453125 53.1953125 C3.33938259 40.94481112 2.05081411 29.33768737 -4.14453125 18.1953125 C-9.99490782 9.73176773 -18.1725574 3.84337254 -28.14453125 1.1953125 C-46.00715719 -0.84365533 -58.65472178 3.44470862 -70.76953125 17.015625 Z " fill="#6B80B3" transform="translate(224.14453125,64.8046875)"/>
<path d="M0 0 C9.9 0 19.8 0 30 0 C30 35.31 30 70.62 30 107 C29.01 107 28.02 107 27 107 C26.77449463 106.31301025 26.54898926 105.62602051 26.31665039 104.91821289 C20.80922366 88.17669023 15.05948276 71.55046291 9 55 C8.18360682 57.87394498 7.37177859 60.7490513 6.5625 63.625 C6.33240234 64.43324219 6.10230469 65.24148437 5.86523438 66.07421875 C4.6612128 70.3668174 3.62287748 74.57542207 3 79 C2.01 78.67 1.02 78.34 0 78 C0 52.26 0 26.52 0 0 Z " fill="#6B80B3" transform="translate(90,81)"/>
<path d="M0 0 C9.57 0 19.14 0 29 0 C29 24.09 29 48.18 29 73 C19.43 73 9.86 73 0 73 C-1.44685624 70.10628753 -1.12731373 67.59589951 -1.12939453 64.36303711 C-1.13114685 63.68160141 -1.13289917 63.00016571 -1.13470459 62.29808044 C-1.13911317 60.04114246 -1.13618894 57.78428256 -1.1328125 55.52734375 C-1.13348575 53.96318039 -1.13445595 52.39901713 -1.13571167 50.83485413 C-1.13718723 47.55550135 -1.13503834 44.27617579 -1.13037109 40.99682617 C-1.12466918 36.78423113 -1.12795662 32.57169973 -1.13394356 28.35910702 C-1.13754898 25.12931332 -1.13641076 21.89953482 -1.13381577 18.66974068 C-1.13314669 17.11593175 -1.13397425 15.56212147 -1.13629532 14.00831413 C-1.13882205 11.84136139 -1.13498122 9.67451326 -1.12939453 7.50756836 C-1.12859894 6.2722789 -1.12780334 5.03698944 -1.12698364 3.76426697 C-1 1 -1 1 0 0 Z " fill="#6B80B3" transform="translate(54,116)"/>
<path d="M0 0 C1.25554688 -0.00128906 2.51109375 -0.00257813 3.8046875 -0.00390625 C4.46178711 -0.00181152 5.11888672 0.0002832 5.79589844 0.00244141 C7.80411335 0.00779016 9.81210459 0.00249559 11.8203125 -0.00390625 C13.07585938 -0.00261719 14.33140625 -0.00132812 15.625 0 C16.78644531 0.00112793 17.94789062 0.00225586 19.14453125 0.00341797 C21.8125 0.1328125 21.8125 0.1328125 22.8125 1.1328125 C22.91081146 2.63151298 22.94048456 4.13479789 22.94189453 5.63671875 C22.94504669 6.59441162 22.94819885 7.55210449 22.95144653 8.53881836 C22.9494223 9.58046143 22.94739807 10.62210449 22.9453125 11.6953125 C22.94674759 13.2877478 22.94674759 13.2877478 22.94821167 14.91235352 C22.94889364 17.16194722 22.94703819 19.41154287 22.94287109 21.66113281 C22.9375231 25.11788321 22.94281554 28.57450367 22.94921875 32.03125 C22.94855797 34.21093779 22.94727682 36.3906255 22.9453125 38.5703125 C22.94733673 39.61195557 22.94936096 40.65359863 22.95144653 41.72680664 C22.94829437 42.68449951 22.94514221 43.64219238 22.94189453 44.62890625 C22.94109894 45.47638428 22.94030334 46.3238623 22.93948364 47.19702148 C22.8125 49.1328125 22.8125 49.1328125 21.8125 50.1328125 C19.83666172 50.23266892 17.85726522 50.26362044 15.87890625 50.265625 C14.0700293 50.26755859 14.0700293 50.26755859 12.22460938 50.26953125 C10.95423828 50.26566406 9.68386719 50.26179688 8.375 50.2578125 C7.10849609 50.26167969 5.84199219 50.26554687 4.53710938 50.26953125 C3.32990234 50.26824219 2.12269531 50.26695312 0.87890625 50.265625 C-0.23540771 50.26449707 -1.34972168 50.26336914 -2.49780273 50.26220703 C-5.1875 50.1328125 -5.1875 50.1328125 -7.1875 49.1328125 C-7.2127689 42.31519356 -7.23033244 35.49758661 -7.24243164 28.67993164 C-7.24747333 26.35863799 -7.25430651 24.03734753 -7.26293945 21.71606445 C-7.27501225 18.38752455 -7.28072979 15.05902648 -7.28515625 11.73046875 C-7.29031754 10.68568863 -7.29547882 9.64090851 -7.30079651 8.56446838 C-7.30087204 7.60354782 -7.30094757 6.64262726 -7.30102539 5.65258789 C-7.303246 4.80209366 -7.30546661 3.95159943 -7.30775452 3.07533264 C-7.04214032 -1.21524159 -3.53558624 0.00343356 0 0 Z " fill="#6A80B3" transform="translate(23.1875,138.8671875)"/>
<path d="M0 0 C0.66 0 1.32 0 2 0 C1.67 3.3 1.34 6.6 1 10 C0.01 9.67 -0.98 9.34 -2 9 C-2.125 5.625 -2.125 5.625 -2 2 C-1.34 1.34 -0.68 0.68 0 0 Z " fill="#6275AC" transform="translate(92,150)"/>
<path d="M0 0 C0 1.65 0 3.3 0 5 C-1.32 5.33 -2.64 5.66 -4 6 C-3.625 3.5625 -3.625 3.5625 -3 1 C-1 0 -1 0 0 0 Z " fill="#64749F" transform="translate(176,104)"/>
<path d="M0 0 C0.66 0.33 1.32 0.66 2 1 C1.34 2.32 0.68 3.64 0 5 C-0.33 4.01 -0.66 3.02 -1 2 C-0.67 1.34 -0.34 0.68 0 0 Z " fill="#5D6FB9" transform="translate(91,175)"/>
<path d="M0 0 C0.99 0.33 1.98 0.66 3 1 C2.67 1.66 2.34 2.32 2 3 C1.01 2.67 0.02 2.34 -1 2 C-0.67 1.34 -0.34 0.68 0 0 Z " fill="#687AA7" transform="translate(249,149)"/>
<path d="" fill="#000000" transform="translate(0,0)"/>
<path d="" fill="#000000" transform="translate(0,0)"/>
</svg>